<?xml version="1.0" standalone="no"?>
<!DOCTYPE svg PUBLIC "-//W3C//DTD SVG 20010904//EN"
 "http://www.w3.org/TR/2001/REC-SVG-20010904/DTD/svg10.dtd">
<svg version="1.0" xmlns="http://www.w3.org/2000/svg"
 width="205.000000pt" height="211.000000pt" viewBox="0 0 205.000000 211.000000"
 preserveAspectRatio="xMidYMid meet">

<g transform="translate(0.000000,211.000000) scale(0.100000,-0.100000)"
fill="#000000" stroke="none">
<path d="M910 1880 c-19 -19 -20 -33 -20 -214 l0 -194 -77 -6 c-101 -9 -254
-33 -320 -50 l-53 -14 0 46 0 47 119 63 c119 62 139 80 122 110 -11 19 -309
182 -334 182 -9 0 -26 -9 -37 -20 -19 -19 -20 -33 -20 -253 l0 -232 -67 -45
c-47 -31 -77 -61 -98 -94 l-30 -49 0 -341 0 -341 28 -47 c48 -83 176 -163 337
-212 92 -27 242 -56 296 -56 l34 0 0 143 c0 117 4 149 19 182 65 140 257 155
346 27 30 -43 30 -45 33 -198 l3 -154 39 0 c54 0 190 27 290 57 160 48 289
128 337 211 l28 47 3 317 c2 213 -1 331 -8 360 -14 54 -113 152 -188 187 l-52
24 0 66 0 66 116 60 c119 62 142 82 125 113 -5 9 -79 55 -166 100 -168 90
-196 96 -215 46 -6 -14 -10 -109 -10 -211 l0 -186 -32 6 c-18 3 -71 13 -118
22 -47 8 -133 18 -192 22 l-108 6 0 36 c0 36 1 36 119 99 119 62 139 80 122
110 -11 19 -309 182 -333 182 -10 0 -27 -9 -38 -20z m313 -566 c43 -4 77 -9
75 -14 -2 -4 -43 -61 -93 -128 l-90 -120 -125 -1 -125 0 -85 117 c-47 63 -86
121 -88 128 -3 12 19 15 213 28 54 3 192 -1 318 -10z m-606 -173 l92 -124 -58
-27 c-32 -15 -68 -38 -79 -50 l-21 -23 -93 32 c-235 82 -276 157 -134 245 36
23 177 76 191 72 6 -1 51 -58 102 -125z m922 104 c123 -41 201 -98 201 -146 0
-49 -91 -110 -238 -158 l-64 -21 -32 25 c-18 13 -56 35 -84 47 l-52 23 80 110
c71 96 110 145 115 145 1 0 34 -11 74 -25z"/>
</g>
</svg>
