<?xml version="1.0" encoding="utf-8"?>
<svg version="1.1" xmlns="http://www.w3.org/2000/svg" viewBox="0 0 250 250" xml:space="preserve">
  <defs>
    <mask id="rMask">
      <!-- Background bianco (visibile) -->
      <rect x="0" y="0" width="250" height="250" fill="white"/>
      <!-- R nera (invisibile - scavata) -->
      <path fill="black" d="M161.7,164c1.2,0.2,2.2,0.9,2.8,2l0,0l18.7,32.1l-38.2,0.1l-36.2,-62.4l39.2,-0.5c9.3,0.3,18.7,-4.4,23.4,-12.9c6.4,-11.6,2.3,-26.3,-9.4,-32.8c-11.7,-6.4,-26.4,-2.2,-33.4,9.4l-55.4,99.1L35,198L99.3,82.5c15.6,-28,51.1,-38.2,79.2,-22.6c28.1,15.4,36.8,53.3,21.3,81.4c-7,12.6,-20.2,19.5,-28.6,22.3l-1.3,0.3c-1.3,0.4,-2.7,0.6,-4.3,0.6C164.2,164.5,163,164.3,161.7,164L161.7,164z"/>
    </mask>
  </defs>
  <!-- Background con R scavata dentro -->
  <rect x="10" y="10" width="230" height="230" rx="25" ry="25" fill="currentColor" mask="url(#rMask)"/>
</svg>
