<svg xmlns="http://www.w3.org/2000/svg" xmlns:android="http://schemas.android.com/apk/res/android" width="180dp" height="180dp" viewportWidth="180" viewportHeight="180">
	<path d="M12.3,1.1c-4.5,1.3 -10,7.1 -11.3,11.8 -0.7,2.7 -1,28.3 -0.8,79.3l0.3,75.3 2.3,3.7c1.3,2 4,4.7 6,6l3.7,2.3 77.5,-0 77.5,-0 3.7,-2.3c2,-1.3 4.7,-4 6,-6l2.3,-3.7 0,-77.5 0,-77.5 -2.3,-3.7c-1.3,-2 -4,-4.7 -6,-6l-3.7,-2.3 -76,-0.2c-45.6,-0.1 -77.3,0.2 -79.2,0.8zM80.8,71.5c9.2,5.5 9.8,18.3 1.3,25.2l-2.3,1.9 4.7,6.7 4.7,6.7 -5.5,-0 -5.4,-0 -4.2,-6c-4.1,-5.8 -4.4,-6 -8.7,-6l-4.4,-0 0,6 0,6 -5,-0 -5,-0 0,-21.6 0,-21.6 13.3,0.4c11,0.2 13.7,0.6 16.5,2.3zM128.8,72.7l-0.3,3.8 -11.2,0.3 -11.3,0.3 0,4.4 0,4.5 10,-0 10,-0 0,4 0,4 -10,-0 -10,-0 0,5 0,5 11.5,-0 11.5,-0 0,4 0,4 -16.5,-0 -16.5,-0 0,-21.5 0,-21.5 16.6,-0 16.5,-0 -0.3,3.7z" fill="#000000" stroke="#00000000"/>
	<path d="M61,84.5l0,7.7 6.6,-0.4c5.5,-0.3 7,-0.8 8.5,-2.7 2.4,-3 2.4,-6.2 0,-9.2 -1.5,-1.9 -3,-2.4 -8.5,-2.7l-6.6,-0.4 0,7.7z" fill="#000000" stroke="#00000000"/>
</svg>
